<svg xmlns="http://www.w3.org/2000/svg" width="480" height="900" viewBox="0 0 480 900">
  <defs>
    <linearGradient id="sky" x2="0" y2="1">
      <stop stop-color="#393b83" />
      <stop offset=".38" stop-color="#c675b1" />
      <stop offset=".7" stop-color="#ffb39c" />
      <stop offset="1" stop-color="#fde0bd" />
    </linearGradient>
    <linearGradient id="sea" x2=".3" y2="1">
      <stop stop-color="#8ae0dd" />
      <stop offset=".4" stop-color="#2e9bab" />
      <stop offset="1" stop-color="#24506f" />
    </linearGradient>
    <linearGradient id="rock" x2="1" y2="1">
      <stop stop-color="#695c7a" />
      <stop offset="1" stop-color="#222b45" />
    </linearGradient>
    <linearGradient id="reflection" x2="0" y2="1">
      <stop stop-color="#fff3cf" stop-opacity=".8" />
      <stop offset="1" stop-color="#ffdeb0" stop-opacity="0" />
    </linearGradient>
    <filter id="blur"><feGaussianBlur stdDeviation="18" /></filter>
  </defs>
  <path fill="url(#sky)" d="M0 0h480v900H0Z" />
  <circle cx="303" cy="287" r="66" fill="#ffc2b2" opacity=".35" filter="url(#blur)" />
  <circle cx="303" cy="287" r="43" fill="#ffe2c2" />
  <path d="M0 332q80-24 170 5t310-9v572H0Z" fill="url(#sea)" />
  <path d="m285 332 39 0 96 440H175Z" fill="url(#reflection)" />
  <g fill="none" stroke="#ecf5df" opacity=".3" stroke-linecap="round">
    <path
      d="M238 355h119m-154 21h179m-130 24h104m-186 36h251M151 475h248M120 530h304M65 604h350"
    />
  </g>
  <path d="m0 366 74-22 44 45 20 112-42 120L0 694Z" fill="#746386" />
  <path d="m0 403 58-30 20 49 42 33-11 113-53 86-56 2Z" fill="url(#rock)" />
  <path d="m480 505-57-38-78 68-19 86-53 54-36 225h243Z" fill="#7b7089" />
  <path d="m480 536-68-9-38 62 6 64-61 45-25 119-28 83h214Z" fill="url(#rock)" />
  <path
    d="m396 560-13 107m-54 49 37 4-40 59"
    stroke="#a2929b"
    stroke-width="3"
    fill="none"
    opacity=".5"
  />
  <path d="M0 820q84-58 169 0t311 12v68H0Z" fill="#172b40" />
  <g stroke="#c6ede3" fill="none" opacity=".65">
    <path
      d="M115 641q47 17 118-2m-129 13q54 15 120-3M44 725q95-7 141 14m-129-3q91-3 135 14"
    />
  </g>
  <g fill="none" stroke="#424367" stroke-width="3" stroke-linecap="round">
    <path d="M105 212q7-7 14 0 7-7 14 0m20-16q5-5 10 0 5-5 10 0" />
  </g>
</svg>
